<svg xmlns="http://www.w3.org/2000/svg" viewBox="0 0 140 84.53333333333333" width="140" height="84.53333333333333">
  <defs>
    <linearGradient id="wood_capping_90x19" x1="0" y1="0" x2="1" y2="1">
      <stop offset="0%" stop-color="#E4C872"/>
      <stop offset="50%" stop-color="#CCAA55"/>
      <stop offset="100%" stop-color="#AA8833"/>
    </linearGradient>
    <clipPath id="clip_capping_90x19">
      <polygon points="70,8 130,23.2 130,48.53333333333333 10,48.53333333333333 10,23.2"/>
    </clipPath>
  </defs>
  <polygon points="71.5,9.5 131.5,24.7 131.5,50.03333333333333 11.5,50.03333333333333 11.5,24.7" fill="#00000015"/>
  <polygon points="70,8 130,23.2 130,48.53333333333333 10,48.53333333333333 10,23.2" fill="url(#wood_capping_90x19)" stroke="#AA8833" stroke-width="1.2"/>
  <!-- Grain texture -->
  <g clip-path="url(#clip_capping_90x19)" transform="translate(10,23.2)">
    <ellipse cx="64.43600823045267" cy="15.744545038866026" rx="48.50509259259259" ry="6.870168038408778" fill="none" stroke="#8B6914" stroke-width="0.7052674897119342" opacity="0.09433727709190673"/><ellipse cx="64.43600823045267" cy="15.744545038866026" rx="66.30887345679012" ry="14.428743998628256" fill="none" stroke="#8B6914" stroke-width="0.8743244170096023" opacity="0.11546939300411523"/><ellipse cx="64.43600823045267" cy="15.744545038866026" rx="102.11265432098766" ry="21.987319958847735" fill="none" stroke="#8B6914" stroke-width="1.0433813443072704" opacity="0.13660150891632372"/><line x1="7.901697530864198" y1="0" x2="6.5318158436214" y2="25.333333333333332" stroke="#6B4F10" stroke-width="0.5992438271604938" opacity="0.06309387860082305"/><line x1="20.037551440329217" y1="0" x2="19.93559670781893" y2="25.333333333333332" stroke="#6B4F10" stroke-width="0.6837722908093279" opacity="0.07577314814814815"/><line x1="32.173405349794244" y1="0" x2="33.33937757201647" y2="25.333333333333332" stroke="#6B4F10" stroke-width="0.7683007544581619" opacity="0.08845241769547324"/><line x1="44.30925925925926" y1="0" x2="46.74315843621399" y2="25.333333333333332" stroke="#6B4F10" stroke-width="0.45282921810699595" opacity="0.04113168724279836"/><line x1="44.44511316872428" y1="0" x2="42.146939300411525" y2="25.333333333333332" stroke="#6B4F10" stroke-width="0.5373576817558299" opacity="0.05381095679012346"/><line x1="56.5809670781893" y1="0" x2="55.550720164609054" y2="25.333333333333332" stroke="#6B4F10" stroke-width="0.621886145404664" opacity="0.06649022633744855"/><line x1="68.71682098765432" y1="0" x2="68.95450102880658" y2="25.333333333333332" stroke="#6B4F10" stroke-width="0.706414609053498" opacity="0.07916949588477365"/><line x1="80.85267489711933" y1="0" x2="82.3582818930041" y2="25.333333333333332" stroke="#6B4F10" stroke-width="0.790943072702332" opacity="0.09184876543209876"/><line x1="92.98852880658437" y1="0" x2="95.76206275720165" y2="25.333333333333332" stroke="#6B4F10" stroke-width="0.475471536351166" opacity="0.04452803497942387"/><line x1="93.12438271604938" y1="0" x2="91.16584362139918" y2="25.333333333333332" stroke="#6B4F10" stroke-width="0.56" opacity="0.05720730452674897"/>
  </g>
  
      <line x1="10" y1="23.2" x2="70" y2="8" stroke="#fff" stroke-width="1.5" opacity="0.2"/>
      <line x1="70" y1="8" x2="130" y2="23.2" stroke="#fff" stroke-width="1" opacity="0.1"/>
    
  <!-- Label -->
  <text x="70" y="72.53333333333333" text-anchor="middle" font-family="system-ui, -apple-system, sans-serif" font-size="12" font-weight="700" fill="#475569">90×19</text>
</svg>