<svg xmlns="http://www.w3.org/2000/svg" viewBox="0 0 140 100.12307692307692" width="140" height="100.12307692307692">
  <defs>
    <linearGradient id="wood_capping_65x19" x1="0" y1="0" x2="1" y2="1">
      <stop offset="0%" stop-color="#E4C872"/>
      <stop offset="50%" stop-color="#CCAA55"/>
      <stop offset="100%" stop-color="#AA8833"/>
    </linearGradient>
    <clipPath id="clip_capping_65x19">
      <polygon points="70,8 130,29.046153846153846 130,64.12307692307692 10,64.12307692307692 10,29.046153846153846"/>
    </clipPath>
  </defs>
  <polygon points="71.5,9.5 131.5,30.546153846153846 131.5,65.62307692307692 11.5,65.62307692307692 11.5,30.546153846153846" fill="#00000015"/>
  <polygon points="70,8 130,29.046153846153846 130,64.12307692307692 10,64.12307692307692 10,29.046153846153846" fill="url(#wood_capping_65x19)" stroke="#AA8833" stroke-width="1.2"/>
  <!-- Grain texture -->
  <g clip-path="url(#clip_capping_65x19)" transform="translate(10,29.046153846153846)">
    <ellipse cx="79.970987654321" cy="12.31036403925293" rx="28.33070987654321" ry="8.876951566951568" fill="none" stroke="#8B6914" stroke-width="0.9641838134430727" opacity="0.12670181755829904"/><ellipse cx="79.970987654321" cy="12.31036403925293" rx="56.134490740740745" ry="17.004210588793924" fill="none" stroke="#8B6914" stroke-width="1.1332407407407408" opacity="0.14783393347050755"/><ellipse cx="79.970987654321" cy="12.31036403925293" rx="83.93827160493827" ry="25.13146961063628" fill="none" stroke="#8B6914" stroke-width="0.5022976680384088" opacity="0.16896604938271606"/><ellipse cx="79.970987654321" cy="12.31036403925293" rx="111.7420524691358" ry="33.258728632478636" fill="none" stroke="#8B6914" stroke-width="0.6713545953360769" opacity="0.09009816529492456"/><line x1="11.785442386831276" y1="0" x2="12.357433127572017" y2="35.07692307692308" stroke="#6B4F10" stroke-width="0.7287019890260631" opacity="0.08251260288065843"/><line x1="23.921296296296298" y1="0" x2="25.761213991769548" y2="35.07692307692308" stroke="#6B4F10" stroke-width="0.41323045267489716" opacity="0.09519187242798355"/><line x1="36.05715020576132" y1="0" x2="33.16499485596708" y2="35.07692307692308" stroke="#6B4F10" stroke-width="0.49775891632373115" opacity="0.047871141975308645"/><line x1="36.19300411522634" y1="0" x2="34.56877572016461" y2="35.07692307692308" stroke="#6B4F10" stroke-width="0.5822873799725652" opacity="0.06055041152263374"/><line x1="48.328858024691364" y1="0" x2="47.972556584362145" y2="35.07692307692308" stroke="#6B4F10" stroke-width="0.6668158436213991" opacity="0.07322968106995885"/><line x1="60.46471193415638" y1="0" x2="61.37633744855967" y2="35.07692307692308" stroke="#6B4F10" stroke-width="0.7513443072702333" opacity="0.08590895061728396"/><line x1="72.6005658436214" y1="0" x2="74.7801183127572" y2="35.07692307692308" stroke="#6B4F10" stroke-width="0.43587277091906723" opacity="0.09858822016460905"/><line x1="84.73641975308641" y1="0" x2="82.18389917695472" y2="35.07692307692308" stroke="#6B4F10" stroke-width="0.5204012345679012" opacity="0.05126748971193416"/><line x1="84.87227366255145" y1="0" x2="83.58768004115227" y2="35.07692307692308" stroke="#6B4F10" stroke-width="0.6049296982167353" opacity="0.06394675925925926"/><line x1="97.00812757201646" y1="0" x2="96.9914609053498" y2="35.07692307692308" stroke="#6B4F10" stroke-width="0.6894581618655693" opacity="0.07662602880658437"/>
  </g>
  
      <line x1="10" y1="29.046153846153846" x2="70" y2="8" stroke="#fff" stroke-width="1.5" opacity="0.2"/>
      <line x1="70" y1="8" x2="130" y2="29.046153846153846" stroke="#fff" stroke-width="1" opacity="0.1"/>
    
  <!-- Label -->
  <text x="70" y="88.12307692307692" text-anchor="middle" font-family="system-ui, -apple-system, sans-serif" font-size="12" font-weight="700" fill="#475569">65×19</text>
</svg>