<svg xmlns="http://www.w3.org/2000/svg" viewBox="0 0 140 70.05714285714285" width="140" height="70.05714285714285">
  <defs>
    <linearGradient id="wood_capping_140x19" x1="0" y1="0" x2="1" y2="1">
      <stop offset="0%" stop-color="#E4C872"/>
      <stop offset="50%" stop-color="#CCAA55"/>
      <stop offset="100%" stop-color="#AA8833"/>
    </linearGradient>
    <clipPath id="clip_capping_140x19">
      <polygon points="70,8 130,17.771428571428572 130,34.05714285714286 10,34.05714285714286 10,17.771428571428572"/>
    </clipPath>
  </defs>
  <polygon points="71.5,9.5 131.5,19.271428571428572 131.5,35.55714285714286 11.5,35.55714285714286 11.5,19.271428571428572" fill="#00000015"/>
  <polygon points="70,8 130,17.771428571428572 130,34.05714285714286 10,34.05714285714286 10,17.771428571428572" fill="url(#wood_capping_140x19)" stroke="#AA8833" stroke-width="1.2"/>
  <!-- Grain texture -->
  <g clip-path="url(#clip_capping_140x19)" transform="translate(10,17.771428571428572)">
    <ellipse cx="81.36604938271606" cy="5.904855967078189" rx="36.853858024691355" ry="5.278154761904761" fill="none" stroke="#8B6914" stroke-width="0.987434842249657" opacity="0.12960819615912209"/><ellipse cx="81.36604938271606" cy="5.904855967078189" rx="72.65763888888888" ry="10.13723930776014" fill="none" stroke="#8B6914" stroke-width="1.1564917695473251" opacity="0.1507403120713306"/><ellipse cx="81.36604938271606" cy="5.904855967078189" rx="108.46141975308642" ry="14.99632385361552" fill="none" stroke="#8B6914" stroke-width="0.5255486968449932" opacity="0.1718724279835391"/><line x1="12.13420781893004" y1="0" x2="12.880581275720164" y2="16.285714285714285" stroke="#6B4F10" stroke-width="0.7403275034293553" opacity="0.08425643004115227"/><line x1="24.270061728395063" y1="0" x2="26.284362139917697" y2="16.285714285714285" stroke="#6B4F10" stroke-width="0.42485596707818934" opacity="0.09693569958847736"/><line x1="36.40591563786008" y1="0" x2="33.688143004115226" y2="16.285714285714285" stroke="#6B4F10" stroke-width="0.5093844307270233" opacity="0.04961496913580247"/><line x1="36.5417695473251" y1="0" x2="35.091923868312755" y2="16.285714285714285" stroke="#6B4F10" stroke-width="0.5939128943758574" opacity="0.06229423868312757"/><line x1="48.67762345679013" y1="0" x2="48.4957047325103" y2="16.285714285714285" stroke="#6B4F10" stroke-width="0.6784413580246913" opacity="0.07497350823045268"/><line x1="60.81347736625514" y1="0" x2="61.89948559670782" y2="16.285714285714285" stroke="#6B4F10" stroke-width="0.7629698216735255" opacity="0.08765277777777777"/><line x1="72.94933127572016" y1="0" x2="75.30326646090533" y2="16.285714285714285" stroke="#6B4F10" stroke-width="0.4474982853223594" opacity="0.040332047325102885"/><line x1="85.08518518518517" y1="0" x2="82.70704732510286" y2="16.285714285714285" stroke="#6B4F10" stroke-width="0.5320267489711934" opacity="0.05301131687242799"/><line x1="85.22103909465022" y1="0" x2="84.11082818930043" y2="16.285714285714285" stroke="#6B4F10" stroke-width="0.6165552126200274" opacity="0.06569058641975309"/><line x1="97.35689300411524" y1="0" x2="97.51460905349795" y2="16.285714285714285" stroke="#6B4F10" stroke-width="0.7010836762688615" opacity="0.07836985596707818"/>
  </g>
  
      <line x1="10" y1="17.771428571428572" x2="70" y2="8" stroke="#fff" stroke-width="1.5" opacity="0.2"/>
      <line x1="70" y1="8" x2="130" y2="17.771428571428572" stroke="#fff" stroke-width="1" opacity="0.1"/>
    
  <!-- Label -->
  <text x="70" y="58.05714285714286" text-anchor="middle" font-family="system-ui, -apple-system, sans-serif" font-size="12" font-weight="700" fill="#475569">140×19</text>
</svg>