<svg xmlns="http://www.w3.org/2000/svg" viewBox="0 0 140 84" width="140" height="84">
  <defs>
    <linearGradient id="wood_capping_90x19" x1="0" y1="0" x2="1" y2="1">
      <stop offset="0%" stop-color="#E4C872"/>
      <stop offset="50%" stop-color="#CCAA55"/>
      <stop offset="100%" stop-color="#AA8833"/>
    </linearGradient>
    <clipPath id="clip_capping_90x19">
      <polygon points="70,8 130,23 130,48 10,48 10,23"/>
    </clipPath>
  </defs>
  <polygon points="71.5,9.5 131.5,24.5 131.5,49.5 11.5,49.5 11.5,24.5" fill="#00000015"/>
  <polygon points="70,8 130,23 130,48 10,48 10,23" fill="url(#wood_capping_90x19)" stroke="#AA8833" stroke-width="1.2"/>
  <g clip-path="url(#clip_capping_90x19)" transform="translate(10,23)">
    <ellipse cx="64.94853482111222" cy="16.67699734138045" rx="57.4" ry="9.1" fill="none" stroke="#8B6914" stroke-width="1.02" opacity="0.093"/><ellipse cx="64.94853482111222" cy="16.67699734138045" rx="83.2" ry="12.5" fill="none" stroke="#8B6914" stroke-width="0.72" opacity="0.101"/><ellipse cx="64.94853482111222" cy="16.67699734138045" rx="97.9" ry="17.5" fill="none" stroke="#8B6914" stroke-width="1.03" opacity="0.131"/><line x1="8.2" y1="0" x2="9.8" y2="25" stroke="#6B4F10" stroke-width="0.46" opacity="0.077"/><line x1="17.3" y1="0" x2="16.6" y2="25" stroke="#6B4F10" stroke-width="0.64" opacity="0.093"/><line x1="30.2" y1="0" x2="28.8" y2="25" stroke="#6B4F10" stroke-width="0.53" opacity="0.090"/><line x1="40.4" y1="0" x2="40.1" y2="25" stroke="#6B4F10" stroke-width="0.58" opacity="0.090"/><line x1="51.9" y1="0" x2="52.5" y2="25" stroke="#6B4F10" stroke-width="0.66" opacity="0.089"/><line x1="64.3" y1="0" x2="63.2" y2="25" stroke="#6B4F10" stroke-width="0.50" opacity="0.066"/><line x1="77.0" y1="0" x2="75.9" y2="25" stroke="#6B4F10" stroke-width="0.73" opacity="0.069"/><line x1="88.0" y1="0" x2="89.3" y2="25" stroke="#6B4F10" stroke-width="0.73" opacity="0.076"/><line x1="102.8" y1="0" x2="104.4" y2="25" stroke="#6B4F10" stroke-width="0.47" opacity="0.056"/><line x1="113.3" y1="0" x2="114.1" y2="25" stroke="#6B4F10" stroke-width="0.75" opacity="0.064"/>
  </g>
  <line x1="10" y1="23" x2="70" y2="8" stroke="#fff" stroke-width="1.5" opacity="0.2"/>
  <line x1="70" y1="8" x2="130" y2="23" stroke="#fff" stroke-width="1" opacity="0.1"/>
  <text x="70" y="72" text-anchor="middle" font-family="system-ui, -apple-system, sans-serif" font-size="12" font-weight="700" fill="#475569">90×19</text>
</svg>