<svg xmlns="http://www.w3.org/2000/svg" viewBox="0 0 140 100" width="140" height="100">
  <defs>
    <linearGradient id="wood_capping_65x19" x1="0" y1="0" x2="1" y2="1">
      <stop offset="0%" stop-color="#E4C872"/>
      <stop offset="50%" stop-color="#CCAA55"/>
      <stop offset="100%" stop-color="#AA8833"/>
    </linearGradient>
    <clipPath id="clip_capping_65x19">
      <polygon points="70,8 130,29 130,64 10,64 10,29"/>
    </clipPath>
  </defs>
  <polygon points="71.5,9.5 131.5,30.5 131.5,65.5 11.5,65.5 11.5,30.5" fill="#00000015"/>
  <polygon points="70,8 130,29 130,64 10,64 10,29" fill="url(#wood_capping_65x19)" stroke="#AA8833" stroke-width="1.2"/>
  <g clip-path="url(#clip_capping_65x19)" transform="translate(10,29)">
    <ellipse cx="60.25271326327018" cy="17.121946166848712" rx="55.8" ry="12.2" fill="none" stroke="#8B6914" stroke-width="0.88" opacity="0.095"/><ellipse cx="60.25271326327018" cy="17.121946166848712" rx="81.8" ry="18.1" fill="none" stroke="#8B6914" stroke-width="1.19" opacity="0.169"/><ellipse cx="60.25271326327018" cy="17.121946166848712" rx="103.3" ry="23.7" fill="none" stroke="#8B6914" stroke-width="0.93" opacity="0.101"/><line x1="5.6" y1="0" x2="5.2" y2="35" stroke="#6B4F10" stroke-width="0.57" opacity="0.050"/><line x1="20.3" y1="0" x2="19.3" y2="35" stroke="#6B4F10" stroke-width="0.58" opacity="0.073"/><line x1="28.2" y1="0" x2="27.1" y2="35" stroke="#6B4F10" stroke-width="0.46" opacity="0.077"/><line x1="39.9" y1="0" x2="39.6" y2="35" stroke="#6B4F10" stroke-width="0.59" opacity="0.044"/><line x1="51.8" y1="0" x2="52.6" y2="35" stroke="#6B4F10" stroke-width="0.53" opacity="0.052"/><line x1="64.0" y1="0" x2="63.5" y2="35" stroke="#6B4F10" stroke-width="0.51" opacity="0.050"/><line x1="77.3" y1="0" x2="78.4" y2="35" stroke="#6B4F10" stroke-width="0.74" opacity="0.083"/><line x1="90.4" y1="0" x2="92.0" y2="35" stroke="#6B4F10" stroke-width="0.74" opacity="0.067"/><line x1="103.4" y1="0" x2="102.3" y2="35" stroke="#6B4F10" stroke-width="0.57" opacity="0.099"/><line x1="116.3" y1="0" x2="115.9" y2="35" stroke="#6B4F10" stroke-width="0.60" opacity="0.083"/>
  </g>
  <line x1="10" y1="29" x2="70" y2="8" stroke="#fff" stroke-width="1.5" opacity="0.2"/>
  <line x1="70" y1="8" x2="130" y2="29" stroke="#fff" stroke-width="1" opacity="0.1"/>
  <text x="70" y="88" text-anchor="middle" font-family="system-ui, -apple-system, sans-serif" font-size="12" font-weight="700" fill="#475569">65×19</text>
</svg>