<svg xmlns="http://www.w3.org/2000/svg" viewBox="0 0 140 60" width="140" height="60">
  <defs>
    <linearGradient id="wood_board_200x19" x1="0" y1="0" x2="1" y2="1">
      <stop offset="0%" stop-color="#E8C06A"/>
      <stop offset="50%" stop-color="#D4A44A"/>
      <stop offset="100%" stop-color="#B8882E"/>
    </linearGradient>
    <clipPath id="clip_board_200x19">
      <rect x="10" y="8" width="120" height="16" rx="1"/>
    </clipPath>
  </defs>
  <rect x="11.5" y="9.5" width="120" height="16" rx="1.5" fill="#00000015"/>
  <rect x="10" y="8" width="120" height="16" rx="1.5" fill="url(#wood_board_200x19)" stroke="#B8882E" stroke-width="1.2"/>
  <g clip-path="url(#clip_board_200x19)" transform="translate(10,8)">
    <ellipse cx="61.60996183157896" cy="10.834289243476736" rx="55.3" ry="5.8" fill="none" stroke="#8B6914" stroke-width="0.91" opacity="0.122"/><ellipse cx="61.60996183157896" cy="10.834289243476736" rx="81.5" ry="8.3" fill="none" stroke="#8B6914" stroke-width="0.66" opacity="0.129"/><ellipse cx="61.60996183157896" cy="10.834289243476736" rx="96.1" ry="10.6" fill="none" stroke="#8B6914" stroke-width="0.52" opacity="0.121"/><line x1="6.8" y1="0" x2="6.4" y2="16" stroke="#6B4F10" stroke-width="0.76" opacity="0.065"/><line x1="19.0" y1="0" x2="20.5" y2="16" stroke="#6B4F10" stroke-width="0.65" opacity="0.051"/><line x1="29.4" y1="0" x2="28.4" y2="16" stroke="#6B4F10" stroke-width="0.74" opacity="0.069"/><line x1="40.7" y1="0" x2="42.1" y2="16" stroke="#6B4F10" stroke-width="0.79" opacity="0.046"/><line x1="53.8" y1="0" x2="54.5" y2="16" stroke="#6B4F10" stroke-width="0.49" opacity="0.092"/><line x1="65.6" y1="0" x2="66.2" y2="16" stroke="#6B4F10" stroke-width="0.74" opacity="0.090"/><line x1="77.6" y1="0" x2="76.1" y2="16" stroke="#6B4F10" stroke-width="0.74" opacity="0.042"/><line x1="87.7" y1="0" x2="86.4" y2="16" stroke="#6B4F10" stroke-width="0.49" opacity="0.098"/><line x1="103.7" y1="0" x2="104.9" y2="16" stroke="#6B4F10" stroke-width="0.80" opacity="0.046"/><line x1="111.7" y1="0" x2="112.5" y2="16" stroke="#6B4F10" stroke-width="0.73" opacity="0.092"/>
  </g>
  <rect x="10.5" y="8.5" width="119" height="3" rx="0.5" fill="#fff" opacity="0.15"/>
  <text x="70" y="48" text-anchor="middle" font-family="system-ui, -apple-system, sans-serif" font-size="12" font-weight="700" fill="#475569">200×19</text>
</svg>