<svg xmlns="http://www.w3.org/2000/svg" viewBox="0 0 140 164" width="140" height="164">
  <defs>
    <linearGradient id="wood_post_125x125" x1="0" y1="0" x2="1" y2="1">
      <stop offset="0%" stop-color="#DABA60"/>
      <stop offset="50%" stop-color="#C49A3C"/>
      <stop offset="100%" stop-color="#A07828"/>
    </linearGradient>
    <clipPath id="clip_post_125x125">
      <rect x="10" y="8" width="120" height="120" rx="1"/>
    </clipPath>
  </defs>
  <rect x="11.5" y="9.5" width="120" height="120" rx="1.5" fill="#00000015"/>
  <rect x="10" y="8" width="120" height="120" rx="1.5" fill="url(#wood_post_125x125)" stroke="#A07828" stroke-width="1.2"/>
  <g clip-path="url(#clip_post_125x125)" transform="translate(10,8)">
    <ellipse cx="71.66449881313788" cy="38.463110046892524" rx="38.4" ry="31.2" fill="none" stroke="#8B6914" stroke-width="1.10" opacity="0.081"/><ellipse cx="71.66449881313788" cy="38.463110046892524" rx="42.1" ry="33.8" fill="none" stroke="#8B6914" stroke-width="0.91" opacity="0.095"/><ellipse cx="71.66449881313788" cy="38.463110046892524" rx="54.3" ry="44.8" fill="none" stroke="#8B6914" stroke-width="1.16" opacity="0.144"/><ellipse cx="71.66449881313788" cy="38.463110046892524" rx="65.7" ry="50.0" fill="none" stroke="#8B6914" stroke-width="0.58" opacity="0.167"/><ellipse cx="71.66449881313788" cy="38.463110046892524" rx="73.7" ry="57.0" fill="none" stroke="#8B6914" stroke-width="1.14" opacity="0.123"/><ellipse cx="71.66449881313788" cy="38.463110046892524" rx="82.8" ry="68.4" fill="none" stroke="#8B6914" stroke-width="0.52" opacity="0.098"/><ellipse cx="71.66449881313788" cy="38.463110046892524" rx="91.6" ry="72.2" fill="none" stroke="#8B6914" stroke-width="0.91" opacity="0.170"/><ellipse cx="71.66449881313788" cy="38.463110046892524" rx="103.1" ry="78.3" fill="none" stroke="#8B6914" stroke-width="1.03" opacity="0.171"/><line x1="7.2" y1="0" x2="6.2" y2="120" stroke="#6B4F10" stroke-width="0.49" opacity="0.093"/><line x1="19.6" y1="0" x2="21.3" y2="120" stroke="#6B4F10" stroke-width="0.68" opacity="0.074"/><line x1="31.5" y1="0" x2="29.7" y2="120" stroke="#6B4F10" stroke-width="0.75" opacity="0.069"/><line x1="43.3" y1="0" x2="43.7" y2="120" stroke="#6B4F10" stroke-width="0.76" opacity="0.050"/><line x1="53.4" y1="0" x2="55.4" y2="120" stroke="#6B4F10" stroke-width="0.60" opacity="0.081"/><line x1="67.0" y1="0" x2="68.0" y2="120" stroke="#6B4F10" stroke-width="0.75" opacity="0.041"/><line x1="77.5" y1="0" x2="76.8" y2="120" stroke="#6B4F10" stroke-width="0.61" opacity="0.060"/><line x1="88.0" y1="0" x2="86.0" y2="120" stroke="#6B4F10" stroke-width="0.43" opacity="0.078"/><line x1="103.2" y1="0" x2="101.9" y2="120" stroke="#6B4F10" stroke-width="0.79" opacity="0.065"/><line x1="114.4" y1="0" x2="116.1" y2="120" stroke="#6B4F10" stroke-width="0.68" opacity="0.047"/>
  </g>
  <rect x="10.5" y="8.5" width="119" height="3" rx="0.5" fill="#fff" opacity="0.15"/>
  <text x="70" y="152" text-anchor="middle" font-family="system-ui, -apple-system, sans-serif" font-size="12" font-weight="700" fill="#475569">125×125</text>
</svg>