<svg xmlns="http://www.w3.org/2000/svg" viewBox="0 0 140 164" width="140" height="164">
  <defs>
    <linearGradient id="wood_post_100x100" x1="0" y1="0" x2="1" y2="1">
      <stop offset="0%" stop-color="#DABA60"/>
      <stop offset="50%" stop-color="#C49A3C"/>
      <stop offset="100%" stop-color="#A07828"/>
    </linearGradient>
    <clipPath id="clip_post_100x100">
      <rect x="10" y="8" width="120" height="120" rx="1"/>
    </clipPath>
  </defs>
  <rect x="11.5" y="9.5" width="120" height="120" rx="1.5" fill="#00000015"/>
  <rect x="10" y="8" width="120" height="120" rx="1.5" fill="url(#wood_post_100x100)" stroke="#A07828" stroke-width="1.2"/>
  <g clip-path="url(#clip_post_100x100)" transform="translate(10,8)">
    <ellipse cx="66.93580650439095" cy="64.19991785679005" rx="34.0" ry="28.1" fill="none" stroke="#8B6914" stroke-width="0.76" opacity="0.151"/><ellipse cx="66.93580650439095" cy="64.19991785679005" rx="49.9" ry="37.3" fill="none" stroke="#8B6914" stroke-width="0.68" opacity="0.106"/><ellipse cx="66.93580650439095" cy="64.19991785679005" rx="58.3" ry="42.9" fill="none" stroke="#8B6914" stroke-width="0.72" opacity="0.108"/><ellipse cx="66.93580650439095" cy="64.19991785679005" rx="66.9" ry="48.8" fill="none" stroke="#8B6914" stroke-width="1.23" opacity="0.087"/><ellipse cx="66.93580650439095" cy="64.19991785679005" rx="79.8" ry="58.5" fill="none" stroke="#8B6914" stroke-width="0.98" opacity="0.173"/><ellipse cx="66.93580650439095" cy="64.19991785679005" rx="89.0" ry="64.0" fill="none" stroke="#8B6914" stroke-width="1.12" opacity="0.154"/><ellipse cx="66.93580650439095" cy="64.19991785679005" rx="89.0" ry="75.8" fill="none" stroke="#8B6914" stroke-width="1.08" opacity="0.123"/><ellipse cx="66.93580650439095" cy="64.19991785679005" rx="99.2" ry="82.3" fill="none" stroke="#8B6914" stroke-width="0.83" opacity="0.179"/><line x1="7.9" y1="0" x2="9.7" y2="120" stroke="#6B4F10" stroke-width="0.62" opacity="0.055"/><line x1="17.8" y1="0" x2="17.9" y2="120" stroke="#6B4F10" stroke-width="0.59" opacity="0.092"/><line x1="31.6" y1="0" x2="30.9" y2="120" stroke="#6B4F10" stroke-width="0.76" opacity="0.077"/><line x1="41.3" y1="0" x2="39.7" y2="120" stroke="#6B4F10" stroke-width="0.57" opacity="0.070"/><line x1="55.8" y1="0" x2="54.2" y2="120" stroke="#6B4F10" stroke-width="0.61" opacity="0.095"/><line x1="64.7" y1="0" x2="66.4" y2="120" stroke="#6B4F10" stroke-width="0.72" opacity="0.072"/><line x1="76.0" y1="0" x2="76.5" y2="120" stroke="#6B4F10" stroke-width="0.76" opacity="0.098"/><line x1="89.6" y1="0" x2="89.0" y2="120" stroke="#6B4F10" stroke-width="0.55" opacity="0.087"/><line x1="102.3" y1="0" x2="104.1" y2="120" stroke="#6B4F10" stroke-width="0.40" opacity="0.088"/><line x1="113.0" y1="0" x2="111.5" y2="120" stroke="#6B4F10" stroke-width="0.47" opacity="0.086"/>
  </g>
  <rect x="10.5" y="8.5" width="119" height="3" rx="0.5" fill="#fff" opacity="0.15"/>
  <text x="70" y="152" text-anchor="middle" font-family="system-ui, -apple-system, sans-serif" font-size="12" font-weight="700" fill="#475569">100×100</text>
</svg>