<svg xmlns="http://www.w3.org/2000/svg" viewBox="0 0 140 104" width="140" height="104">
  <defs>
    <linearGradient id="wood_batten_40x20" x1="0" y1="0" x2="1" y2="1">
      <stop offset="0%" stop-color="#E8C06A"/>
      <stop offset="50%" stop-color="#D4A44A"/>
      <stop offset="100%" stop-color="#B8882E"/>
    </linearGradient>
    <clipPath id="clip_batten_40x20">
      <rect x="10" y="8" width="120" height="60" rx="1"/>
    </clipPath>
  </defs>
  <rect x="11.5" y="9.5" width="120" height="60" rx="1.5" fill="#00000015"/>
  <rect x="10" y="8" width="120" height="60" rx="1.5" fill="url(#wood_batten_40x20)" stroke="#B8882E" stroke-width="1.2"/>
  <g clip-path="url(#clip_batten_40x20)" transform="translate(10,8)">
    <ellipse cx="55.558018702602034" cy="37.62046331131874" rx="36.6" ry="14.5" fill="none" stroke="#8B6914" stroke-width="0.89" opacity="0.128"/><ellipse cx="55.558018702602034" cy="37.62046331131874" rx="59.8" ry="19.5" fill="none" stroke="#8B6914" stroke-width="0.92" opacity="0.097"/><ellipse cx="55.558018702602034" cy="37.62046331131874" rx="64.3" ry="24.8" fill="none" stroke="#8B6914" stroke-width="0.81" opacity="0.091"/><ellipse cx="55.558018702602034" cy="37.62046331131874" rx="74.3" ry="29.2" fill="none" stroke="#8B6914" stroke-width="1.07" opacity="0.156"/><ellipse cx="55.558018702602034" cy="37.62046331131874" rx="94.5" ry="35.8" fill="none" stroke="#8B6914" stroke-width="1.14" opacity="0.116"/><ellipse cx="55.558018702602034" cy="37.62046331131874" rx="98.9" ry="41.7" fill="none" stroke="#8B6914" stroke-width="0.55" opacity="0.136"/><line x1="5.9" y1="0" x2="5.5" y2="60" stroke="#6B4F10" stroke-width="0.79" opacity="0.070"/><line x1="17.9" y1="0" x2="17.2" y2="60" stroke="#6B4F10" stroke-width="0.63" opacity="0.093"/><line x1="29.8" y1="0" x2="29.8" y2="60" stroke="#6B4F10" stroke-width="0.44" opacity="0.067"/><line x1="41.3" y1="0" x2="41.3" y2="60" stroke="#6B4F10" stroke-width="0.54" opacity="0.092"/><line x1="53.6" y1="0" x2="53.7" y2="60" stroke="#6B4F10" stroke-width="0.72" opacity="0.084"/><line x1="67.0" y1="0" x2="68.4" y2="60" stroke="#6B4F10" stroke-width="0.52" opacity="0.059"/><line x1="76.6" y1="0" x2="78.5" y2="60" stroke="#6B4F10" stroke-width="0.63" opacity="0.082"/><line x1="88.1" y1="0" x2="89.8" y2="60" stroke="#6B4F10" stroke-width="0.59" opacity="0.094"/><line x1="103.0" y1="0" x2="105.0" y2="60" stroke="#6B4F10" stroke-width="0.57" opacity="0.100"/><line x1="114.3" y1="0" x2="113.3" y2="60" stroke="#6B4F10" stroke-width="0.60" opacity="0.078"/>
  </g>
  <rect x="10.5" y="8.5" width="119" height="3" rx="0.5" fill="#fff" opacity="0.15"/>
  <text x="70" y="92" text-anchor="middle" font-family="system-ui, -apple-system, sans-serif" font-size="12" font-weight="700" fill="#475569">40×20</text>
</svg>