<svg xmlns="http://www.w3.org/2000/svg" viewBox="0 0 140 70" width="140" height="70">
  <defs>
    <linearGradient id="wood_capping_140x19" x1="0" y1="0" x2="1" y2="1">
      <stop offset="0%" stop-color="#E4C872"/>
      <stop offset="50%" stop-color="#CCAA55"/>
      <stop offset="100%" stop-color="#AA8833"/>
    </linearGradient>
    <clipPath id="clip_capping_140x19">
      <polygon points="70,8 130,18 130,34 10,34 10,18"/>
    </clipPath>
  </defs>
  <polygon points="71.5,9.5 131.5,19.5 131.5,35.5 11.5,35.5 11.5,19.5" fill="#00000015"/>
  <polygon points="70,8 130,18 130,34 10,34 10,18" fill="url(#wood_capping_140x19)" stroke="#AA8833" stroke-width="1.2"/>
  <g clip-path="url(#clip_capping_140x19)" transform="translate(10,18)">
    <ellipse cx="50.340177925620395" cy="9.965484111351412" rx="48.5" ry="5.4" fill="none" stroke="#8B6914" stroke-width="0.51" opacity="0.088"/><ellipse cx="50.340177925620395" cy="9.965484111351412" rx="73.9" ry="8.2" fill="none" stroke="#8B6914" stroke-width="0.57" opacity="0.165"/><ellipse cx="50.340177925620395" cy="9.965484111351412" rx="99.2" ry="11.0" fill="none" stroke="#8B6914" stroke-width="1.25" opacity="0.092"/><line x1="3.8" y1="0" x2="5.4" y2="16" stroke="#6B4F10" stroke-width="0.65" opacity="0.072"/><line x1="16.3" y1="0" x2="16.0" y2="16" stroke="#6B4F10" stroke-width="0.76" opacity="0.071"/><line x1="29.4" y1="0" x2="31.3" y2="16" stroke="#6B4F10" stroke-width="0.67" opacity="0.057"/><line x1="41.6" y1="0" x2="41.1" y2="16" stroke="#6B4F10" stroke-width="0.57" opacity="0.062"/><line x1="52.1" y1="0" x2="52.4" y2="16" stroke="#6B4F10" stroke-width="0.52" opacity="0.043"/><line x1="64.7" y1="0" x2="66.5" y2="16" stroke="#6B4F10" stroke-width="0.47" opacity="0.097"/><line x1="76.3" y1="0" x2="75.0" y2="16" stroke="#6B4F10" stroke-width="0.70" opacity="0.100"/><line x1="88.1" y1="0" x2="88.5" y2="16" stroke="#6B4F10" stroke-width="0.70" opacity="0.093"/><line x1="101.5" y1="0" x2="100.5" y2="16" stroke="#6B4F10" stroke-width="0.67" opacity="0.091"/><line x1="112.1" y1="0" x2="111.2" y2="16" stroke="#6B4F10" stroke-width="0.63" opacity="0.084"/>
  </g>
  <line x1="10" y1="18" x2="70" y2="8" stroke="#fff" stroke-width="1.5" opacity="0.2"/>
  <line x1="70" y1="8" x2="130" y2="18" stroke="#fff" stroke-width="1" opacity="0.1"/>
  <text x="70" y="58" text-anchor="middle" font-family="system-ui, -apple-system, sans-serif" font-size="12" font-weight="700" fill="#475569">140×19</text>
</svg>