<svg xmlns="http://www.w3.org/2000/svg" viewBox="0 0 140 64" width="140" height="64">
  <defs>
    <linearGradient id="wood_board_150x25" x1="0" y1="0" x2="1" y2="1">
      <stop offset="0%" stop-color="#E8C06A"/>
      <stop offset="50%" stop-color="#D4A44A"/>
      <stop offset="100%" stop-color="#B8882E"/>
    </linearGradient>
    <clipPath id="clip_board_150x25">
      <rect x="10" y="8" width="120" height="20" rx="1"/>
    </clipPath>
  </defs>
  <rect x="11.5" y="9.5" width="120" height="20" rx="1.5" fill="#00000015"/>
  <rect x="10" y="8" width="120" height="20" rx="1.5" fill="url(#wood_board_150x25)" stroke="#B8882E" stroke-width="1.2"/>
  <g clip-path="url(#clip_board_150x25)" transform="translate(10,8)">
    <ellipse cx="52.22620769611207" cy="10.62430110259382" rx="48.9" ry="7.1" fill="none" stroke="#8B6914" stroke-width="0.92" opacity="0.145"/><ellipse cx="52.22620769611207" cy="10.62430110259382" rx="78.4" ry="9.7" fill="none" stroke="#8B6914" stroke-width="1.23" opacity="0.091"/><ellipse cx="52.22620769611207" cy="10.62430110259382" rx="96.1" ry="13.3" fill="none" stroke="#8B6914" stroke-width="1.02" opacity="0.105"/><line x1="7.6" y1="0" x2="8.2" y2="20" stroke="#6B4F10" stroke-width="0.65" opacity="0.090"/><line x1="15.7" y1="0" x2="16.0" y2="20" stroke="#6B4F10" stroke-width="0.75" opacity="0.064"/><line x1="29.0" y1="0" x2="28.9" y2="20" stroke="#6B4F10" stroke-width="0.41" opacity="0.050"/><line x1="43.6" y1="0" x2="43.1" y2="20" stroke="#6B4F10" stroke-width="0.59" opacity="0.041"/><line x1="54.7" y1="0" x2="55.8" y2="20" stroke="#6B4F10" stroke-width="0.64" opacity="0.078"/><line x1="64.7" y1="0" x2="65.7" y2="20" stroke="#6B4F10" stroke-width="0.60" opacity="0.044"/><line x1="76.4" y1="0" x2="76.5" y2="20" stroke="#6B4F10" stroke-width="0.51" opacity="0.087"/><line x1="89.3" y1="0" x2="87.4" y2="20" stroke="#6B4F10" stroke-width="0.66" opacity="0.084"/><line x1="102.7" y1="0" x2="103.1" y2="20" stroke="#6B4F10" stroke-width="0.78" opacity="0.091"/><line x1="113.9" y1="0" x2="112.6" y2="20" stroke="#6B4F10" stroke-width="0.43" opacity="0.045"/>
  </g>
  <rect x="10.5" y="8.5" width="119" height="3" rx="0.5" fill="#fff" opacity="0.15"/>
  <text x="70" y="52" text-anchor="middle" font-family="system-ui, -apple-system, sans-serif" font-size="12" font-weight="700" fill="#475569">150×25</text>
</svg>