<svg xmlns="http://www.w3.org/2000/svg" viewBox="0 0 140 164" width="140" height="164">
  <defs>
    <linearGradient id="wood_framing_45x45" x1="0" y1="0" x2="1" y2="1">
      <stop offset="0%" stop-color="#E8C06A"/>
      <stop offset="50%" stop-color="#D4A44A"/>
      <stop offset="100%" stop-color="#B8882E"/>
    </linearGradient>
    <clipPath id="clip_framing_45x45">
      <rect x="10" y="8" width="120" height="120" rx="1"/>
    </clipPath>
  </defs>
  <rect x="11.5" y="9.5" width="120" height="120" rx="1.5" fill="#00000015"/>
  <rect x="10" y="8" width="120" height="120" rx="1.5" fill="url(#wood_framing_45x45)" stroke="#B8882E" stroke-width="1.2"/>
  <g clip-path="url(#clip_framing_45x45)" transform="translate(10,8)">
    <ellipse cx="56.53080509652459" cy="38.482756691503106" rx="36.9" ry="28.6" fill="none" stroke="#8B6914" stroke-width="1.05" opacity="0.127"/><ellipse cx="56.53080509652459" cy="38.482756691503106" rx="49.5" ry="39.0" fill="none" stroke="#8B6914" stroke-width="0.98" opacity="0.175"/><ellipse cx="56.53080509652459" cy="38.482756691503106" rx="57.2" ry="42.5" fill="none" stroke="#8B6914" stroke-width="1.26" opacity="0.096"/><ellipse cx="56.53080509652459" cy="38.482756691503106" rx="60.8" ry="50.4" fill="none" stroke="#8B6914" stroke-width="0.97" opacity="0.143"/><ellipse cx="56.53080509652459" cy="38.482756691503106" rx="76.1" ry="60.1" fill="none" stroke="#8B6914" stroke-width="1.27" opacity="0.096"/><ellipse cx="56.53080509652459" cy="38.482756691503106" rx="84.6" ry="66.8" fill="none" stroke="#8B6914" stroke-width="0.79" opacity="0.132"/><ellipse cx="56.53080509652459" cy="38.482756691503106" rx="96.2" ry="70.7" fill="none" stroke="#8B6914" stroke-width="0.85" opacity="0.177"/><ellipse cx="56.53080509652459" cy="38.482756691503106" rx="96.5" ry="82.5" fill="none" stroke="#8B6914" stroke-width="1.16" opacity="0.150"/><line x1="6.6" y1="0" x2="6.3" y2="120" stroke="#6B4F10" stroke-width="0.62" opacity="0.094"/><line x1="20.1" y1="0" x2="20.5" y2="120" stroke="#6B4F10" stroke-width="0.71" opacity="0.069"/><line x1="27.9" y1="0" x2="26.6" y2="120" stroke="#6B4F10" stroke-width="0.41" opacity="0.050"/><line x1="44.2" y1="0" x2="45.2" y2="120" stroke="#6B4F10" stroke-width="0.67" opacity="0.070"/><line x1="55.9" y1="0" x2="54.5" y2="120" stroke="#6B4F10" stroke-width="0.40" opacity="0.067"/><line x1="67.1" y1="0" x2="66.2" y2="120" stroke="#6B4F10" stroke-width="0.46" opacity="0.091"/><line x1="78.0" y1="0" x2="78.6" y2="120" stroke="#6B4F10" stroke-width="0.65" opacity="0.095"/><line x1="89.7" y1="0" x2="89.8" y2="120" stroke="#6B4F10" stroke-width="0.53" opacity="0.096"/><line x1="101.9" y1="0" x2="103.2" y2="120" stroke="#6B4F10" stroke-width="0.64" opacity="0.068"/><line x1="114.5" y1="0" x2="114.9" y2="120" stroke="#6B4F10" stroke-width="0.49" opacity="0.091"/>
  </g>
  <rect x="10.5" y="8.5" width="119" height="3" rx="0.5" fill="#fff" opacity="0.15"/>
  <text x="70" y="152" text-anchor="middle" font-family="system-ui, -apple-system, sans-serif" font-size="12" font-weight="700" fill="#475569">45×45</text>
</svg>