<svg xmlns="http://www.w3.org/2000/svg" viewBox="0 0 140 79" width="140" height="79">
  <defs>
    <linearGradient id="wood_batten_65x19" x1="0" y1="0" x2="1" y2="1">
      <stop offset="0%" stop-color="#E8C06A"/>
      <stop offset="50%" stop-color="#D4A44A"/>
      <stop offset="100%" stop-color="#B8882E"/>
    </linearGradient>
    <clipPath id="clip_batten_65x19">
      <rect x="10" y="8" width="120" height="35" rx="1"/>
    </clipPath>
  </defs>
  <rect x="11.5" y="9.5" width="120" height="35" rx="1.5" fill="#00000015"/>
  <rect x="10" y="8" width="120" height="35" rx="1.5" fill="url(#wood_batten_65x19)" stroke="#B8882E" stroke-width="1.2"/>
  <g clip-path="url(#clip_batten_65x19)" transform="translate(10,8)">
    <ellipse cx="60.25252543040787" cy="15.280417131986857" rx="58.7" ry="11.4" fill="none" stroke="#8B6914" stroke-width="1.25" opacity="0.173"/><ellipse cx="60.25252543040787" cy="15.280417131986857" rx="81.2" ry="17.0" fill="none" stroke="#8B6914" stroke-width="0.65" opacity="0.175"/><ellipse cx="60.25252543040787" cy="15.280417131986857" rx="98.7" ry="22.8" fill="none" stroke="#8B6914" stroke-width="1.06" opacity="0.097"/><line x1="5.3" y1="0" x2="6.8" y2="35" stroke="#6B4F10" stroke-width="0.70" opacity="0.050"/><line x1="18.4" y1="0" x2="17.2" y2="35" stroke="#6B4F10" stroke-width="0.41" opacity="0.092"/><line x1="30.2" y1="0" x2="29.4" y2="35" stroke="#6B4F10" stroke-width="0.52" opacity="0.045"/><line x1="44.2" y1="0" x2="45.4" y2="35" stroke="#6B4F10" stroke-width="0.42" opacity="0.062"/><line x1="52.3" y1="0" x2="54.0" y2="35" stroke="#6B4F10" stroke-width="0.43" opacity="0.049"/><line x1="65.3" y1="0" x2="63.5" y2="35" stroke="#6B4F10" stroke-width="0.66" opacity="0.065"/><line x1="77.3" y1="0" x2="77.0" y2="35" stroke="#6B4F10" stroke-width="0.64" opacity="0.084"/><line x1="91.7" y1="0" x2="90.3" y2="35" stroke="#6B4F10" stroke-width="0.48" opacity="0.062"/><line x1="100.4" y1="0" x2="99.7" y2="35" stroke="#6B4F10" stroke-width="0.46" opacity="0.073"/><line x1="112.7" y1="0" x2="114.3" y2="35" stroke="#6B4F10" stroke-width="0.51" opacity="0.067"/>
  </g>
  <rect x="10.5" y="8.5" width="119" height="3" rx="0.5" fill="#fff" opacity="0.15"/>
  <text x="70" y="67" text-anchor="middle" font-family="system-ui, -apple-system, sans-serif" font-size="12" font-weight="700" fill="#475569">65×19</text>
</svg>