<svg xmlns="http://www.w3.org/2000/svg" viewBox="0 0 140 67" width="140" height="67">
  <defs>
    <linearGradient id="wood_framing_240x45" x1="0" y1="0" x2="1" y2="1">
      <stop offset="0%" stop-color="#E8C06A"/>
      <stop offset="50%" stop-color="#D4A44A"/>
      <stop offset="100%" stop-color="#B8882E"/>
    </linearGradient>
    <clipPath id="clip_framing_240x45">
      <rect x="10" y="8" width="120" height="23" rx="1"/>
    </clipPath>
  </defs>
  <rect x="11.5" y="9.5" width="120" height="23" rx="1.5" fill="#00000015"/>
  <rect x="10" y="8" width="120" height="23" rx="1.5" fill="url(#wood_framing_240x45)" stroke="#B8882E" stroke-width="1.2"/>
  <g clip-path="url(#clip_framing_240x45)" transform="translate(10,8)">
    <ellipse cx="69.15821323651654" cy="15.367790543164864" rx="52.4" ry="7.6" fill="none" stroke="#8B6914" stroke-width="0.74" opacity="0.131"/><ellipse cx="69.15821323651654" cy="15.367790543164864" rx="75.9" ry="11.8" fill="none" stroke="#8B6914" stroke-width="0.82" opacity="0.086"/><ellipse cx="69.15821323651654" cy="15.367790543164864" rx="101.0" ry="15.6" fill="none" stroke="#8B6914" stroke-width="0.66" opacity="0.152"/><line x1="4.0" y1="0" x2="5.7" y2="23" stroke="#6B4F10" stroke-width="0.69" opacity="0.086"/><line x1="18.7" y1="0" x2="16.7" y2="23" stroke="#6B4F10" stroke-width="0.69" opacity="0.090"/><line x1="32.4" y1="0" x2="33.4" y2="23" stroke="#6B4F10" stroke-width="0.76" opacity="0.078"/><line x1="44.0" y1="0" x2="43.0" y2="23" stroke="#6B4F10" stroke-width="0.53" opacity="0.048"/><line x1="54.5" y1="0" x2="54.0" y2="23" stroke="#6B4F10" stroke-width="0.46" opacity="0.057"/><line x1="66.5" y1="0" x2="64.8" y2="23" stroke="#6B4F10" stroke-width="0.43" opacity="0.096"/><line x1="76.7" y1="0" x2="77.2" y2="23" stroke="#6B4F10" stroke-width="0.54" opacity="0.088"/><line x1="91.7" y1="0" x2="91.9" y2="23" stroke="#6B4F10" stroke-width="0.46" opacity="0.095"/><line x1="103.1" y1="0" x2="103.6" y2="23" stroke="#6B4F10" stroke-width="0.44" opacity="0.083"/><line x1="113.4" y1="0" x2="114.8" y2="23" stroke="#6B4F10" stroke-width="0.41" opacity="0.057"/>
  </g>
  <rect x="10.5" y="8.5" width="119" height="3" rx="0.5" fill="#fff" opacity="0.15"/>
  <text x="70" y="55" text-anchor="middle" font-family="system-ui, -apple-system, sans-serif" font-size="12" font-weight="700" fill="#475569">240×45</text>
</svg>