<svg xmlns="http://www.w3.org/2000/svg" viewBox="0 0 140 63" width="140" height="63">
  <defs>
    <linearGradient id="wood_framing_290x45" x1="0" y1="0" x2="1" y2="1">
      <stop offset="0%" stop-color="#E8C06A"/>
      <stop offset="50%" stop-color="#D4A44A"/>
      <stop offset="100%" stop-color="#B8882E"/>
    </linearGradient>
    <clipPath id="clip_framing_290x45">
      <rect x="10" y="8" width="120" height="19" rx="1"/>
    </clipPath>
  </defs>
  <rect x="11.5" y="9.5" width="120" height="19" rx="1.5" fill="#00000015"/>
  <rect x="10" y="8" width="120" height="19" rx="1.5" fill="url(#wood_framing_290x45)" stroke="#B8882E" stroke-width="1.2"/>
  <g clip-path="url(#clip_framing_290x45)" transform="translate(10,8)">
    <ellipse cx="54.54985634102473" cy="11.854625721047286" rx="55.6" ry="6.8" fill="none" stroke="#8B6914" stroke-width="1.03" opacity="0.127"/><ellipse cx="54.54985634102473" cy="11.854625721047286" rx="78.7" ry="10.0" fill="none" stroke="#8B6914" stroke-width="0.68" opacity="0.151"/><ellipse cx="54.54985634102473" cy="11.854625721047286" rx="102.3" ry="12.7" fill="none" stroke="#8B6914" stroke-width="0.87" opacity="0.113"/><line x1="4.4" y1="0" x2="6.2" y2="19" stroke="#6B4F10" stroke-width="0.48" opacity="0.081"/><line x1="17.6" y1="0" x2="16.1" y2="19" stroke="#6B4F10" stroke-width="0.41" opacity="0.068"/><line x1="31.6" y1="0" x2="31.9" y2="19" stroke="#6B4F10" stroke-width="0.50" opacity="0.044"/><line x1="40.4" y1="0" x2="39.1" y2="19" stroke="#6B4F10" stroke-width="0.51" opacity="0.080"/><line x1="54.7" y1="0" x2="53.8" y2="19" stroke="#6B4F10" stroke-width="0.72" opacity="0.070"/><line x1="66.9" y1="0" x2="68.1" y2="19" stroke="#6B4F10" stroke-width="0.80" opacity="0.068"/><line x1="76.1" y1="0" x2="76.3" y2="19" stroke="#6B4F10" stroke-width="0.52" opacity="0.058"/><line x1="91.8" y1="0" x2="91.1" y2="19" stroke="#6B4F10" stroke-width="0.43" opacity="0.053"/><line x1="101.8" y1="0" x2="103.8" y2="19" stroke="#6B4F10" stroke-width="0.64" opacity="0.057"/><line x1="112.1" y1="0" x2="111.9" y2="19" stroke="#6B4F10" stroke-width="0.70" opacity="0.077"/>
  </g>
  <rect x="10.5" y="8.5" width="119" height="3" rx="0.5" fill="#fff" opacity="0.15"/>
  <text x="70" y="51" text-anchor="middle" font-family="system-ui, -apple-system, sans-serif" font-size="12" font-weight="700" fill="#475569">290×45</text>
</svg>