<svg xmlns="http://www.w3.org/2000/svg" viewBox="0 0 140 60" width="140" height="60">
  <defs>
    <linearGradient id="wood_board_200x25" x1="0" y1="0" x2="1" y2="1">
      <stop offset="0%" stop-color="#E8C06A"/>
      <stop offset="50%" stop-color="#D4A44A"/>
      <stop offset="100%" stop-color="#B8882E"/>
    </linearGradient>
    <clipPath id="clip_board_200x25">
      <rect x="10" y="8" width="120" height="16" rx="1"/>
    </clipPath>
  </defs>
  <rect x="11.5" y="9.5" width="120" height="16" rx="1.5" fill="#00000015"/>
  <rect x="10" y="8" width="120" height="16" rx="1.5" fill="url(#wood_board_200x25)" stroke="#B8882E" stroke-width="1.2"/>
  <g clip-path="url(#clip_board_200x25)" transform="translate(10,8)">
    <ellipse cx="61.617850811796124" cy="7.79164669494298" rx="52.1" ry="5.3" fill="none" stroke="#8B6914" stroke-width="1.21" opacity="0.141"/><ellipse cx="61.617850811796124" cy="7.79164669494298" rx="81.2" ry="8.0" fill="none" stroke="#8B6914" stroke-width="1.08" opacity="0.155"/><ellipse cx="61.617850811796124" cy="7.79164669494298" rx="97.3" ry="10.5" fill="none" stroke="#8B6914" stroke-width="1.24" opacity="0.166"/><line x1="8.0" y1="0" x2="8.6" y2="16" stroke="#6B4F10" stroke-width="0.44" opacity="0.084"/><line x1="19.5" y1="0" x2="20.2" y2="16" stroke="#6B4F10" stroke-width="0.47" opacity="0.042"/><line x1="28.2" y1="0" x2="27.4" y2="16" stroke="#6B4F10" stroke-width="0.55" opacity="0.076"/><line x1="40.0" y1="0" x2="39.3" y2="16" stroke="#6B4F10" stroke-width="0.58" opacity="0.073"/><line x1="54.9" y1="0" x2="55.6" y2="16" stroke="#6B4F10" stroke-width="0.50" opacity="0.092"/><line x1="65.2" y1="0" x2="65.0" y2="16" stroke="#6B4F10" stroke-width="0.57" opacity="0.076"/><line x1="75.7" y1="0" x2="75.6" y2="16" stroke="#6B4F10" stroke-width="0.49" opacity="0.058"/><line x1="89.4" y1="0" x2="90.7" y2="16" stroke="#6B4F10" stroke-width="0.63" opacity="0.041"/><line x1="101.4" y1="0" x2="103.2" y2="16" stroke="#6B4F10" stroke-width="0.58" opacity="0.065"/><line x1="112.6" y1="0" x2="113.7" y2="16" stroke="#6B4F10" stroke-width="0.72" opacity="0.065"/>
  </g>
  <rect x="10.5" y="8.5" width="119" height="3" rx="0.5" fill="#fff" opacity="0.15"/>
  <text x="70" y="48" text-anchor="middle" font-family="system-ui, -apple-system, sans-serif" font-size="12" font-weight="700" fill="#475569">200×25</text>
</svg>