<svg xmlns="http://www.w3.org/2000/svg" viewBox="0 0 140 60" width="140" height="60">
  <defs>
    <linearGradient id="wood_decking_140x19" x1="0" y1="0" x2="1" y2="1">
      <stop offset="0%" stop-color="#DEB860"/>
      <stop offset="50%" stop-color="#C89E42"/>
      <stop offset="100%" stop-color="#AA8228"/>
    </linearGradient>
    <clipPath id="clip_decking_140x19">
      <rect x="10" y="8" width="120" height="16" rx="1"/>
    </clipPath>
  </defs>
  <rect x="11.5" y="9.5" width="120" height="16" rx="1.5" fill="#00000015"/>
  <rect x="10" y="8" width="120" height="16" rx="1.5" fill="url(#wood_decking_140x19)" stroke="#AA8228" stroke-width="1.2"/>
  <g clip-path="url(#clip_decking_140x19)" transform="translate(10,8)">
    <ellipse cx="50.34036575848271" cy="10.807325955859689" rx="57.6" ry="5.8" fill="none" stroke="#8B6914" stroke-width="0.94" opacity="0.110"/><ellipse cx="50.34036575848271" cy="10.807325955859689" rx="74.5" ry="7.9" fill="none" stroke="#8B6914" stroke-width="1.12" opacity="0.159"/><ellipse cx="50.34036575848271" cy="10.807325955859689" rx="103.8" ry="10.7" fill="none" stroke="#8B6914" stroke-width="1.11" opacity="0.095"/><line x1="4.0" y1="0" x2="3.8" y2="16" stroke="#6B4F10" stroke-width="0.52" opacity="0.072"/><line x1="18.1" y1="0" x2="18.1" y2="16" stroke="#6B4F10" stroke-width="0.52" opacity="0.052"/><line x1="32.2" y1="0" x2="33.8" y2="16" stroke="#6B4F10" stroke-width="0.61" opacity="0.088"/><line x1="42.1" y1="0" x2="40.1" y2="16" stroke="#6B4F10" stroke-width="0.74" opacity="0.044"/><line x1="51.7" y1="0" x2="51.0" y2="16" stroke="#6B4F10" stroke-width="0.63" opacity="0.045"/><line x1="68.3" y1="0" x2="67.3" y2="16" stroke="#6B4F10" stroke-width="0.72" opacity="0.083"/><line x1="76.3" y1="0" x2="76.5" y2="16" stroke="#6B4F10" stroke-width="0.40" opacity="0.098"/><line x1="91.6" y1="0" x2="91.0" y2="16" stroke="#6B4F10" stroke-width="0.56" opacity="0.098"/><line x1="99.8" y1="0" x2="98.3" y2="16" stroke="#6B4F10" stroke-width="0.77" opacity="0.057"/><line x1="115.7" y1="0" x2="116.8" y2="16" stroke="#6B4F10" stroke-width="0.73" opacity="0.041"/>
  </g>
  <rect x="10.5" y="8.5" width="119" height="3" rx="0.5" fill="#fff" opacity="0.15"/>
  <text x="70" y="48" text-anchor="middle" font-family="system-ui, -apple-system, sans-serif" font-size="12" font-weight="700" fill="#475569">140×19</text>
</svg>