<svg xmlns="http://www.w3.org/2000/svg" viewBox="0 0 140 60" width="140" height="60">
  <defs>
    <linearGradient id="wood_board_150x19" x1="0" y1="0" x2="1" y2="1">
      <stop offset="0%" stop-color="#E8C06A"/>
      <stop offset="50%" stop-color="#D4A44A"/>
      <stop offset="100%" stop-color="#B8882E"/>
    </linearGradient>
    <clipPath id="clip_board_150x19">
      <rect x="10" y="8" width="120" height="16" rx="1"/>
    </clipPath>
  </defs>
  <rect x="11.5" y="9.5" width="120" height="16" rx="1.5" fill="#00000015"/>
  <rect x="10" y="8" width="120" height="16" rx="1.5" fill="url(#wood_board_150x19)" stroke="#B8882E" stroke-width="1.2"/>
  <g clip-path="url(#clip_board_150x19)" transform="translate(10,8)">
    <ellipse cx="52.218318715894895" cy="5.14208342762858" rx="52.1" ry="5.4" fill="none" stroke="#8B6914" stroke-width="0.62" opacity="0.126"/><ellipse cx="52.218318715894895" cy="5.14208342762858" rx="78.7" ry="8.2" fill="none" stroke="#8B6914" stroke-width="0.80" opacity="0.165"/><ellipse cx="52.218318715894895" cy="5.14208342762858" rx="106.8" ry="10.8" fill="none" stroke="#8B6914" stroke-width="1.10" opacity="0.160"/><line x1="6.5" y1="0" x2="6.0" y2="16" stroke="#6B4F10" stroke-width="0.58" opacity="0.070"/><line x1="20.0" y1="0" x2="21.1" y2="16" stroke="#6B4F10" stroke-width="0.53" opacity="0.073"/><line x1="30.2" y1="0" x2="29.9" y2="16" stroke="#6B4F10" stroke-width="0.60" opacity="0.042"/><line x1="44.3" y1="0" x2="45.9" y2="16" stroke="#6B4F10" stroke-width="0.80" opacity="0.074"/><line x1="53.6" y1="0" x2="54.7" y2="16" stroke="#6B4F10" stroke-width="0.63" opacity="0.078"/><line x1="65.1" y1="0" x2="66.9" y2="16" stroke="#6B4F10" stroke-width="0.77" opacity="0.058"/><line x1="78.2" y1="0" x2="77.0" y2="16" stroke="#6B4F10" stroke-width="0.76" opacity="0.071"/><line x1="92.4" y1="0" x2="92.0" y2="16" stroke="#6B4F10" stroke-width="0.51" opacity="0.080"/><line x1="100.2" y1="0" x2="99.9" y2="16" stroke="#6B4F10" stroke-width="0.60" opacity="0.071"/><line x1="112.9" y1="0" x2="111.4" y2="16" stroke="#6B4F10" stroke-width="0.44" opacity="0.072"/>
  </g>
  <rect x="10.5" y="8.5" width="119" height="3" rx="0.5" fill="#fff" opacity="0.15"/>
  <text x="70" y="48" text-anchor="middle" font-family="system-ui, -apple-system, sans-serif" font-size="12" font-weight="700" fill="#475569">150×19</text>
</svg>