<svg xmlns="http://www.w3.org/2000/svg" viewBox="0 0 140 83" width="140" height="83">
  <defs>
    <linearGradient id="wood_framing_140x45" x1="0" y1="0" x2="1" y2="1">
      <stop offset="0%" stop-color="#E8C06A"/>
      <stop offset="50%" stop-color="#D4A44A"/>
      <stop offset="100%" stop-color="#B8882E"/>
    </linearGradient>
    <clipPath id="clip_framing_140x45">
      <rect x="10" y="8" width="120" height="39" rx="1"/>
    </clipPath>
  </defs>
  <rect x="11.5" y="9.5" width="120" height="39" rx="1.5" fill="#00000015"/>
  <rect x="10" y="8" width="120" height="39" rx="1.5" fill="url(#wood_framing_140x45)" stroke="#B8882E" stroke-width="1.2"/>
  <g clip-path="url(#clip_framing_140x45)" transform="translate(10,8)">
    <ellipse cx="50.37492700514842" cy="13.908924097762373" rx="58.0" ry="12.9" fill="none" stroke="#8B6914" stroke-width="0.96" opacity="0.139"/><ellipse cx="50.37492700514842" cy="13.908924097762373" rx="82.4" ry="19.1" fill="none" stroke="#8B6914" stroke-width="1.11" opacity="0.157"/><ellipse cx="50.37492700514842" cy="13.908924097762373" rx="98.5" ry="27.1" fill="none" stroke="#8B6914" stroke-width="1.03" opacity="0.131"/><line x1="8.0" y1="0" x2="9.7" y2="39" stroke="#6B4F10" stroke-width="0.71" opacity="0.097"/><line x1="16.0" y1="0" x2="17.1" y2="39" stroke="#6B4F10" stroke-width="0.45" opacity="0.074"/><line x1="29.2" y1="0" x2="27.6" y2="39" stroke="#6B4F10" stroke-width="0.49" opacity="0.085"/><line x1="41.7" y1="0" x2="41.0" y2="39" stroke="#6B4F10" stroke-width="0.55" opacity="0.045"/><line x1="54.1" y1="0" x2="54.3" y2="39" stroke="#6B4F10" stroke-width="0.74" opacity="0.089"/><line x1="65.6" y1="0" x2="66.2" y2="39" stroke="#6B4F10" stroke-width="0.48" opacity="0.093"/><line x1="78.0" y1="0" x2="79.0" y2="39" stroke="#6B4F10" stroke-width="0.58" opacity="0.086"/><line x1="91.5" y1="0" x2="93.3" y2="39" stroke="#6B4F10" stroke-width="0.51" opacity="0.060"/><line x1="100.8" y1="0" x2="102.5" y2="39" stroke="#6B4F10" stroke-width="0.45" opacity="0.075"/><line x1="115.9" y1="0" x2="116.6" y2="39" stroke="#6B4F10" stroke-width="0.63" opacity="0.076"/>
  </g>
  <rect x="10.5" y="8.5" width="119" height="3" rx="0.5" fill="#fff" opacity="0.15"/>
  <text x="70" y="71" text-anchor="middle" font-family="system-ui, -apple-system, sans-serif" font-size="12" font-weight="700" fill="#475569">140×45</text>
</svg>