<svg xmlns="http://www.w3.org/2000/svg" viewBox="0 0 140 104" width="140" height="104">
  <defs>
    <linearGradient id="wood_framing_90x45" x1="0" y1="0" x2="1" y2="1">
      <stop offset="0%" stop-color="#E8C06A"/>
      <stop offset="50%" stop-color="#D4A44A"/>
      <stop offset="100%" stop-color="#B8882E"/>
    </linearGradient>
    <clipPath id="clip_framing_90x45">
      <rect x="10" y="8" width="120" height="60" rx="1"/>
    </clipPath>
  </defs>
  <rect x="11.5" y="9.5" width="120" height="60" rx="1.5" fill="#00000015"/>
  <rect x="10" y="8" width="120" height="60" rx="1.5" fill="url(#wood_framing_90x45)" stroke="#B8882E" stroke-width="1.2"/>
  <g clip-path="url(#clip_framing_90x45)" transform="translate(10,8)">
    <ellipse cx="64.98328390064025" cy="24.052572967533553" rx="42.8" ry="16.3" fill="none" stroke="#8B6914" stroke-width="0.67" opacity="0.143"/><ellipse cx="64.98328390064025" cy="24.052572967533553" rx="55.6" ry="21.7" fill="none" stroke="#8B6914" stroke-width="1.25" opacity="0.093"/><ellipse cx="64.98328390064025" cy="24.052572967533553" rx="61.3" ry="24.2" fill="none" stroke="#8B6914" stroke-width="0.81" opacity="0.171"/><ellipse cx="64.98328390064025" cy="24.052572967533553" rx="82.1" ry="31.7" fill="none" stroke="#8B6914" stroke-width="0.75" opacity="0.085"/><ellipse cx="64.98328390064025" cy="24.052572967533553" rx="87.5" ry="36.0" fill="none" stroke="#8B6914" stroke-width="1.16" opacity="0.173"/><ellipse cx="64.98328390064025" cy="24.052572967533553" rx="102.0" ry="39.8" fill="none" stroke="#8B6914" stroke-width="1.20" opacity="0.112"/><line x1="4.5" y1="0" x2="4.1" y2="60" stroke="#6B4F10" stroke-width="0.57" opacity="0.073"/><line x1="17.9" y1="0" x2="18.5" y2="60" stroke="#6B4F10" stroke-width="0.48" opacity="0.076"/><line x1="29.1" y1="0" x2="30.9" y2="60" stroke="#6B4F10" stroke-width="0.51" opacity="0.062"/><line x1="42.6" y1="0" x2="43.9" y2="60" stroke="#6B4F10" stroke-width="0.61" opacity="0.055"/><line x1="55.4" y1="0" x2="54.1" y2="60" stroke="#6B4F10" stroke-width="0.54" opacity="0.042"/><line x1="66.1" y1="0" x2="66.3" y2="60" stroke="#6B4F10" stroke-width="0.65" opacity="0.041"/><line x1="76.4" y1="0" x2="74.7" y2="60" stroke="#6B4F10" stroke-width="0.74" opacity="0.055"/><line x1="90.8" y1="0" x2="89.1" y2="60" stroke="#6B4F10" stroke-width="0.58" opacity="0.063"/><line x1="103.8" y1="0" x2="102.0" y2="60" stroke="#6B4F10" stroke-width="0.41" opacity="0.067"/><line x1="114.3" y1="0" x2="112.3" y2="60" stroke="#6B4F10" stroke-width="0.49" opacity="0.093"/>
  </g>
  <rect x="10.5" y="8.5" width="119" height="3" rx="0.5" fill="#fff" opacity="0.15"/>
  <text x="70" y="92" text-anchor="middle" font-family="system-ui, -apple-system, sans-serif" font-size="12" font-weight="700" fill="#475569">90×45</text>
</svg>