<svg xmlns="http://www.w3.org/2000/svg" viewBox="0 0 140 71" width="140" height="71">
  <defs>
    <linearGradient id="wood_decking_140x32" x1="0" y1="0" x2="1" y2="1">
      <stop offset="0%" stop-color="#DEB860"/>
      <stop offset="50%" stop-color="#C89E42"/>
      <stop offset="100%" stop-color="#AA8228"/>
    </linearGradient>
    <clipPath id="clip_decking_140x32">
      <rect x="10" y="8" width="120" height="27" rx="1"/>
    </clipPath>
  </defs>
  <rect x="11.5" y="9.5" width="120" height="27" rx="1.5" fill="#00000015"/>
  <rect x="10" y="8" width="120" height="27" rx="1.5" fill="url(#wood_decking_140x32)" stroke="#AA8228" stroke-width="1.2"/>
  <g clip-path="url(#clip_decking_140x32)" transform="translate(10,8)">
    <ellipse cx="50.35745854895326" cy="17.912700737465826" rx="54.7" ry="9.4" fill="none" stroke="#8B6914" stroke-width="0.52" opacity="0.103"/><ellipse cx="50.35745854895326" cy="17.912700737465826" rx="77.9" ry="13.1" fill="none" stroke="#8B6914" stroke-width="0.97" opacity="0.165"/><ellipse cx="50.35745854895326" cy="17.912700737465826" rx="102.5" ry="18.3" fill="none" stroke="#8B6914" stroke-width="0.80" opacity="0.110"/><line x1="8.2" y1="0" x2="8.8" y2="27" stroke="#6B4F10" stroke-width="0.55" opacity="0.054"/><line x1="17.6" y1="0" x2="17.9" y2="27" stroke="#6B4F10" stroke-width="0.52" opacity="0.082"/><line x1="30.3" y1="0" x2="30.6" y2="27" stroke="#6B4F10" stroke-width="0.61" opacity="0.085"/><line x1="43.8" y1="0" x2="43.9" y2="27" stroke="#6B4F10" stroke-width="0.68" opacity="0.092"/><line x1="55.7" y1="0" x2="56.4" y2="27" stroke="#6B4F10" stroke-width="0.58" opacity="0.065"/><line x1="68.2" y1="0" x2="66.7" y2="27" stroke="#6B4F10" stroke-width="0.55" opacity="0.073"/><line x1="77.2" y1="0" x2="78.3" y2="27" stroke="#6B4F10" stroke-width="0.59" opacity="0.063"/><line x1="90.5" y1="0" x2="92.1" y2="27" stroke="#6B4F10" stroke-width="0.68" opacity="0.074"/><line x1="102.0" y1="0" x2="102.6" y2="27" stroke="#6B4F10" stroke-width="0.70" opacity="0.100"/><line x1="114.5" y1="0" x2="113.5" y2="27" stroke="#6B4F10" stroke-width="0.58" opacity="0.042"/>
  </g>
  <rect x="10.5" y="8.5" width="119" height="3" rx="0.5" fill="#fff" opacity="0.15"/>
  <text x="70" y="59" text-anchor="middle" font-family="system-ui, -apple-system, sans-serif" font-size="12" font-weight="700" fill="#475569">140×32</text>
</svg>