<svg xmlns="http://www.w3.org/2000/svg" viewBox="0 0 140 72" width="140" height="72">
  <defs>
    <linearGradient id="wood_framing_190x45" x1="0" y1="0" x2="1" y2="1">
      <stop offset="0%" stop-color="#E8C06A"/>
      <stop offset="50%" stop-color="#D4A44A"/>
      <stop offset="100%" stop-color="#B8882E"/>
    </linearGradient>
    <clipPath id="clip_framing_190x45">
      <rect x="10" y="8" width="120" height="28" rx="1"/>
    </clipPath>
  </defs>
  <rect x="11.5" y="9.5" width="120" height="28" rx="1.5" fill="#00000015"/>
  <rect x="10" y="8" width="120" height="28" rx="1.5" fill="url(#wood_framing_190x45)" stroke="#B8882E" stroke-width="1.2"/>
  <g clip-path="url(#clip_framing_190x45)" transform="translate(10,8)">
    <ellipse cx="59.76657012083249" cy="8.747254396553389" rx="49.2" ry="10.0" fill="none" stroke="#8B6914" stroke-width="1.25" opacity="0.135"/><ellipse cx="59.76657012083249" cy="8.747254396553389" rx="73.1" ry="14.1" fill="none" stroke="#8B6914" stroke-width="0.97" opacity="0.122"/><ellipse cx="59.76657012083249" cy="8.747254396553389" rx="99.8" ry="19.2" fill="none" stroke="#8B6914" stroke-width="1.24" opacity="0.092"/><line x1="3.6" y1="0" x2="5.3" y2="28" stroke="#6B4F10" stroke-width="0.50" opacity="0.092"/><line x1="19.7" y1="0" x2="21.3" y2="28" stroke="#6B4F10" stroke-width="0.57" opacity="0.052"/><line x1="28.4" y1="0" x2="30.1" y2="28" stroke="#6B4F10" stroke-width="0.62" opacity="0.052"/><line x1="42.9" y1="0" x2="42.0" y2="28" stroke="#6B4F10" stroke-width="0.54" opacity="0.077"/><line x1="54.3" y1="0" x2="54.2" y2="28" stroke="#6B4F10" stroke-width="0.60" opacity="0.043"/><line x1="66.0" y1="0" x2="65.5" y2="28" stroke="#6B4F10" stroke-width="0.46" opacity="0.065"/><line x1="77.4" y1="0" x2="78.1" y2="28" stroke="#6B4F10" stroke-width="0.56" opacity="0.057"/><line x1="91.6" y1="0" x2="92.6" y2="28" stroke="#6B4F10" stroke-width="0.48" opacity="0.078"/><line x1="104.3" y1="0" x2="103.5" y2="28" stroke="#6B4F10" stroke-width="0.65" opacity="0.049"/><line x1="114.7" y1="0" x2="113.7" y2="28" stroke="#6B4F10" stroke-width="0.52" opacity="0.096"/>
  </g>
  <rect x="10.5" y="8.5" width="119" height="3" rx="0.5" fill="#fff" opacity="0.15"/>
  <text x="70" y="60" text-anchor="middle" font-family="system-ui, -apple-system, sans-serif" font-size="12" font-weight="700" fill="#475569">190×45</text>
</svg>