<svg xmlns="http://www.w3.org/2000/svg" viewBox="0 0 140 75" width="140" height="75">
  <defs>
    <linearGradient id="wood_decking_90x23" x1="0" y1="0" x2="1" y2="1">
      <stop offset="0%" stop-color="#DEB860"/>
      <stop offset="50%" stop-color="#C89E42"/>
      <stop offset="100%" stop-color="#AA8228"/>
    </linearGradient>
    <clipPath id="clip_decking_90x23">
      <rect x="10" y="8" width="120" height="31" rx="1"/>
    </clipPath>
  </defs>
  <rect x="11.5" y="9.5" width="120" height="31" rx="1.5" fill="#00000015"/>
  <rect x="10" y="8" width="120" height="31" rx="1.5" fill="url(#wood_decking_90x23)" stroke="#AA8228" stroke-width="1.2"/>
  <g clip-path="url(#clip_decking_90x23)" transform="translate(10,8)">
    <ellipse cx="64.9539819741193" cy="18.38046531852378" rx="56.3" ry="10.2" fill="none" stroke="#8B6914" stroke-width="0.58" opacity="0.128"/><ellipse cx="64.9539819741193" cy="18.38046531852378" rx="75.5" ry="15.0" fill="none" stroke="#8B6914" stroke-width="1.28" opacity="0.112"/><ellipse cx="64.9539819741193" cy="18.38046531852378" rx="99.4" ry="20.2" fill="none" stroke="#8B6914" stroke-width="1.11" opacity="0.131"/><line x1="6.0" y1="0" x2="5.1" y2="31" stroke="#6B4F10" stroke-width="0.65" opacity="0.091"/><line x1="17.9" y1="0" x2="16.9" y2="31" stroke="#6B4F10" stroke-width="0.68" opacity="0.088"/><line x1="30.6" y1="0" x2="29.1" y2="31" stroke="#6B4F10" stroke-width="0.75" opacity="0.047"/><line x1="43.6" y1="0" x2="43.2" y2="31" stroke="#6B4F10" stroke-width="0.61" opacity="0.050"/><line x1="53.8" y1="0" x2="54.9" y2="31" stroke="#6B4F10" stroke-width="0.51" opacity="0.052"/><line x1="65.9" y1="0" x2="66.9" y2="31" stroke="#6B4F10" stroke-width="0.64" opacity="0.062"/><line x1="75.7" y1="0" x2="77.1" y2="31" stroke="#6B4F10" stroke-width="0.79" opacity="0.098"/><line x1="87.8" y1="0" x2="88.4" y2="31" stroke="#6B4F10" stroke-width="0.69" opacity="0.082"/><line x1="104.3" y1="0" x2="104.5" y2="31" stroke="#6B4F10" stroke-width="0.43" opacity="0.096"/><line x1="114.4" y1="0" x2="114.6" y2="31" stroke="#6B4F10" stroke-width="0.70" opacity="0.062"/>
  </g>
  <rect x="10.5" y="8.5" width="119" height="3" rx="0.5" fill="#fff" opacity="0.15"/>
  <text x="70" y="63" text-anchor="middle" font-family="system-ui, -apple-system, sans-serif" font-size="12" font-weight="700" fill="#475569">90×23</text>
</svg>